<svg width="12" height="20" viewBox="0 0 12 20" fill="none" xmlns="http://www.w3.org/2000/svg">
<path opacity="0.4" fill-rule="evenodd" clip-rule="evenodd" d="M0.418428 19.5814C0.976314 20.1393 1.88084 20.1393 2.43873 19.5814L11.01 11.01C11.568 10.4521 11.568 9.54754 11.01 8.98968C10.4522 8.43182 9.54772 8.43182 8.98972 8.98968L0.418413 17.5611C-0.139474 18.119 -0.139473 19.0235 0.418428 19.5814Z" fill="black"/>
<path fill-rule="evenodd" clip-rule="evenodd" d="M11.01 11.0102C11.568 10.4523 11.568 9.54772 11.01 8.98986L2.43873 0.418427C1.88084 -0.139473 0.976314 -0.139473 0.418428 0.418413C-0.139473 0.976299 -0.139474 1.88083 0.418413 2.43871L8.98972 11.0102C9.54772 11.568 10.4522 11.568 11.01 11.0102Z" fill="#939393"/>
</svg>
