<svg width="18" height="18" viewBox="0 0 18 18" fill="none" xmlns="http://www.w3.org/2000/svg">
<path d="M9 0C4.03 0 0 4.03 0 9C0 13.97 4.03 18 9 18C9.83 18 10.5 17.33 10.5 16.5C10.5 16.11 10.35 15.76 10.11 15.49C9.88 15.23 9.73 14.88 9.73 14.5C9.73 13.67 10.4 13 11.23 13H13C15.76 13 18 10.76 18 8C18 3.58 13.97 0 9 0ZM3.5 9C2.67 9 2 8.33 2 7.5C2 6.67 2.67 6 3.5 6C4.33 6 5 6.67 5 7.5C5 8.33 4.33 9 3.5 9ZM6.5 5C5.67 5 5 4.33 5 3.5C5 2.67 5.67 2 6.5 2C7.33 2 8 2.67 8 3.5C8 4.33 7.33 5 6.5 5ZM11.5 5C10.67 5 10 4.33 10 3.5C10 2.67 10.67 2 11.5 2C12.33 2 13 2.67 13 3.5C13 4.33 12.33 5 11.5 5ZM14.5 9C13.67 9 13 8.33 13 7.5C13 6.67 13.67 6 14.5 6C15.33 6 16 6.67 16 7.5C16 8.33 15.33 9 14.5 9Z" fill="#134D93"/>
</svg>
