<svg width="24" height="24" viewBox="0 0 24 24" fill="none" xmlns="http://www.w3.org/2000/svg">
<path d="M1.2 4.8C0.54 4.8 0 5.34 0 6V21.6C0 22.92 1.08 24 2.4 24H18C18.66 24 19.2 23.46 19.2 22.8C19.2 22.14 18.66 21.6 18 21.6H3.6C2.94 21.6 2.4 21.06 2.4 20.4V6C2.4 5.34 1.86 4.8 1.2 4.8ZM21.6 0H7.2C5.88 0 4.8 1.08 4.8 2.4V16.8C4.8 18.12 5.88 19.2 7.2 19.2H21.6C22.92 19.2 24 18.12 24 16.8V2.4C24 1.08 22.92 0 21.6 0ZM19.2 10.8H9.6C8.94 10.8 8.4 10.26 8.4 9.6C8.4 8.94 8.94 8.4 9.6 8.4H19.2C19.86 8.4 20.4 8.94 20.4 9.6C20.4 10.26 19.86 10.8 19.2 10.8ZM14.4 15.6H9.6C8.94 15.6 8.4 15.06 8.4 14.4C8.4 13.74 8.94 13.2 9.6 13.2H14.4C15.06 13.2 15.6 13.74 15.6 14.4C15.6 15.06 15.06 15.6 14.4 15.6ZM19.2 6H9.6C8.94 6 8.4 5.46 8.4 4.8C8.4 4.14 8.94 3.6 9.6 3.6H19.2C19.86 3.6 20.4 4.14 20.4 4.8C20.4 5.46 19.86 6 19.2 6Z" fill="#535353"/>
</svg>
