<svg width="22" height="17" viewBox="0 0 22 17" fill="none" xmlns="http://www.w3.org/2000/svg">
<path d="M20 0H2C0.9 0 0 0.9 0 2V15C0 16.1 0.9 17 2 17H20C21.1 17 22 16.1 22 15V2C22 0.9 21.1 0 20 0ZM20 14C20 14.55 19.55 15 19 15H11V2H19C19.55 2 20 2.45 20 3V14ZM18.25 5.5H12.75C12.34 5.5 12 5.84 12 6.25C12 6.66 12.34 7 12.75 7H18.25C18.66 7 19 6.66 19 6.25C19 5.84 18.66 5.5 18.25 5.5ZM18.25 8H12.75C12.34 8 12 8.34 12 8.75C12 9.16 12.34 9.5 12.75 9.5H18.25C18.66 9.5 19 9.16 19 8.75C19 8.34 18.66 8 18.25 8ZM18.25 10.5H12.75C12.34 10.5 12 10.84 12 11.25C12 11.66 12.34 12 12.75 12H18.25C18.66 12 19 11.66 19 11.25C19 10.84 18.66 10.5 18.25 10.5Z" fill="#535353"/>
</svg>
