<svg width="32" height="32" viewBox="0 0 32 32" fill="none" xmlns="http://www.w3.org/2000/svg">
<circle cx="16" cy="16" r="16" fill="url(#paint0_linear_1_6)"/>
<path d="M16.24 24.28C15.12 24.28 14.112 24.144 13.216 23.872C12.32 23.584 11.464 23.088 10.648 22.384C10.44 22.208 10.28 22.008 10.168 21.784C10.056 21.56 10 21.336 10 21.112C10 20.744 10.128 20.424 10.384 20.152C10.656 19.864 10.992 19.72 11.392 19.72C11.696 19.72 11.968 19.816 12.208 20.008C12.816 20.504 13.416 20.88 14.008 21.136C14.616 21.392 15.36 21.52 16.24 21.52C16.832 21.52 17.376 21.432 17.872 21.256C18.368 21.064 18.768 20.816 19.072 20.512C19.376 20.192 19.528 19.832 19.528 19.432C19.528 18.952 19.384 18.544 19.096 18.208C18.808 17.872 18.368 17.592 17.776 17.368C17.184 17.128 16.432 16.944 15.52 16.816C14.656 16.688 13.896 16.496 13.24 16.24C12.584 15.968 12.032 15.632 11.584 15.232C11.152 14.816 10.824 14.336 10.6 13.792C10.376 13.232 10.264 12.608 10.264 11.92C10.264 10.88 10.528 9.992 11.056 9.256C11.6 8.52 12.328 7.96 13.24 7.576C14.152 7.192 15.16 7 16.264 7C17.304 7 18.264 7.16 19.144 7.48C20.04 7.784 20.768 8.176 21.328 8.656C21.792 9.024 22.024 9.448 22.024 9.928C22.024 10.28 21.888 10.6 21.616 10.888C21.344 11.176 21.024 11.32 20.656 11.32C20.416 11.32 20.2 11.248 20.008 11.104C19.752 10.88 19.408 10.672 18.976 10.48C18.544 10.272 18.088 10.104 17.608 9.976C17.128 9.832 16.68 9.76 16.264 9.76C15.576 9.76 14.992 9.848 14.512 10.024C14.048 10.2 13.696 10.44 13.456 10.744C13.216 11.048 13.096 11.4 13.096 11.8C13.096 12.28 13.232 12.68 13.504 13C13.792 13.304 14.2 13.552 14.728 13.744C15.256 13.92 15.888 14.08 16.624 14.224C17.584 14.4 18.424 14.608 19.144 14.848C19.88 15.088 20.488 15.4 20.968 15.784C21.448 16.152 21.808 16.624 22.048 17.2C22.288 17.76 22.408 18.448 22.408 19.264C22.408 20.304 22.12 21.2 21.544 21.952C20.968 22.704 20.208 23.28 19.264 23.68C18.336 24.08 17.328 24.28 16.24 24.28Z" fill="white"/>
<defs>
<linearGradient id="paint0_linear_1_6" x1="1.3411e-06" y1="-8" x2="39.3333" y2="52" gradientUnits="userSpaceOnUse">
<stop stop-color="#CE3607"/>
<stop offset="1" stop-color="#ECC180"/>
</linearGradient>
</defs>
</svg>
