<svg width="96" height="19" viewBox="0 0 96 19" fill="none" xmlns="http://www.w3.org/2000/svg">
<path d="M10.2189 0.901855C9.99286 0.901855 9.80976 1.08184 9.80976 1.304V12.3654C9.77672 14.4627 8.74757 15.5117 6.72202 15.5128C5.7503 15.5128 4.98979 15.2544 4.44017 14.7373C3.89056 14.2203 3.61621 13.3978 3.61729 12.2698V1.304C3.61729 1.08184 3.43403 0.901855 3.20816 0.901855H0.409126C0.183103 0.901855 0 1.08184 0 1.304V12.3821C0.0247019 14.2426 0.638545 15.7055 1.84184 16.7709C3.04498 17.8362 4.66959 18.3688 6.71584 18.3688C8.79389 18.3688 10.4324 17.8205 11.6315 16.7238C12.8305 15.6271 13.4306 14.1344 13.4317 12.2455V1.304C13.4317 1.08184 13.2484 0.901855 13.0226 0.901855H10.2189Z" fill="#333333"/>
<path d="M18 9.77502V11.7266C18.0009 11.9489 18.1845 12.1287 18.4107 12.1287H24.3669C24.5931 12.1287 24.7768 11.9489 24.7776 11.7266V9.77502C24.7768 9.5527 24.5931 9.37287 24.3669 9.37287H18.4107C18.1845 9.37287 18.0009 9.5527 18 9.77502Z" fill="#333333"/>
<path d="M38.8482 14.7131C38.2986 15.2139 37.466 15.4643 36.3502 15.4643C35.1151 15.4643 34.2104 15.0344 33.6361 14.1744C33.0618 13.3144 32.7746 11.9542 32.7746 10.0937V8.79163C32.7911 7.01003 33.0999 5.69477 33.7009 4.846C34.2984 4.00073 35.197 3.5743 36.4012 3.5743C37.5077 3.5743 38.331 3.82727 38.8714 4.33307C39.3551 4.77923 39.6577 5.4682 39.7792 6.39997C39.8048 6.60059 39.9779 6.75129 40.1835 6.75204H42.9626C43.1894 6.7522 43.3735 6.57161 43.3736 6.34868C43.3736 6.33138 43.3725 6.31393 43.3702 6.29678C43.1139 4.59212 42.4187 3.2506 41.2844 2.27224C40.0493 1.20889 38.4206 0.676844 36.3981 0.675781C34.9376 0.675781 33.6557 1.01268 32.5523 1.68647C31.4293 2.38515 30.5436 3.3969 30.008 4.59257C29.4152 5.85411 29.1183 7.31308 29.1172 8.96918V10.0208C29.1172 12.6158 29.7614 14.6565 31.0501 16.1426C32.3388 17.6288 34.1054 18.3708 36.3502 18.3689C38.4087 18.3689 40.0637 17.8367 41.3153 16.7724C42.467 15.7951 43.1479 14.4865 43.3579 12.8465C43.3869 12.6254 43.228 12.4231 43.0031 12.3946C42.9855 12.3923 42.9679 12.3912 42.9503 12.3912H40.1588C39.9533 12.392 39.7801 12.5427 39.7543 12.7433C39.6359 13.6133 39.3341 14.27 38.8482 14.7131Z" fill="#333333"/>
<path d="M55.7332 0.90186H52.9542C52.7835 0.901101 52.6305 1.00536 52.5714 1.16288L46.3465 17.5843C46.2671 17.7922 46.3744 18.024 46.5859 18.1019C46.6318 18.1189 46.6804 18.1275 46.7293 18.1275H49.6843C49.8609 18.1272 50.0176 18.016 50.0734 17.8514L51.0892 14.8527C51.1456 14.6885 51.3021 14.578 51.4783 14.578H55.6112C55.7357 14.5785 55.837 14.4795 55.8374 14.3572C55.8374 14.3316 55.8331 14.3062 55.8243 14.2821L55.6128 13.7009C55.176 12.5025 54.0207 11.7027 52.7257 11.7022C52.4997 11.7029 52.3162 11.5232 52.3155 11.3012C52.3155 11.2575 52.3226 11.2141 52.3367 11.1726L53.95 6.39994C54.0249 6.19036 54.2585 6.08019 54.4717 6.15394C54.5887 6.19431 54.6807 6.28491 54.722 6.39994L56.5329 11.7038L57.5133 14.575L58.6357 17.8498C58.6914 18.0137 58.8473 18.1244 59.0232 18.1245H61.9782C62.2042 18.1247 62.3874 17.9448 62.3876 17.7227C62.3878 17.6738 62.3786 17.6254 62.361 17.5797L56.1099 1.15984C56.0499 1.00612 55.9007 0.903984 55.7332 0.90186Z" fill="#333333"/>
<path d="M74.6884 8.26654C74.1913 8.71877 73.4893 8.94534 72.5826 8.94641H70.0769C69.8509 8.94641 69.6678 8.76643 69.6678 8.54426V4.17827C69.6678 3.9561 69.8509 3.77612 70.0769 3.77612H72.5641C73.5336 3.77612 74.2541 4.00876 74.7255 4.47419C75.1886 4.93856 75.4295 5.57897 75.4295 6.39086C75.4295 7.20275 75.1886 7.8128 74.6853 8.26654H74.6884ZM76.115 11.2895C76.0097 11.0921 76.0873 10.848 76.2882 10.7445C76.2891 10.7441 76.29 10.7436 76.291 10.7432C77.0905 10.3579 77.7728 9.7721 78.2687 9.04505C78.7832 8.26199 79.0406 7.28211 79.0406 6.10556C79.0406 4.44946 78.4791 3.16804 77.3562 2.26161C76.2334 1.35517 74.6379 0.89991 72.5702 0.895813H66.4658C66.2397 0.895813 66.0566 1.07579 66.0566 1.29812V17.7178C66.0566 17.9402 66.2396 18.1207 66.4658 18.1215H69.2586C69.4848 18.1207 69.6678 17.9402 69.6678 17.7178V12.2228C69.6678 12.0005 69.8507 11.82 70.0769 11.8191H72.2923C72.4463 11.819 72.5872 11.9041 72.6567 12.0392L75.7151 17.9136C75.785 18.0482 75.9257 18.1332 76.0794 18.1336H79.7029V18.0654C79.7032 17.9996 79.687 17.9348 79.6551 17.8772L76.115 11.2895Z" fill="#333333"/>
<path d="M87.244 14.8785V11.0694C87.244 10.8473 87.4271 10.6673 87.6531 10.6673H93.7653C93.9915 10.6673 94.1752 10.4875 94.176 10.2651V8.29232C94.1752 8.07 93.9915 7.89017 93.7653 7.89017H87.6531C87.4271 7.89017 87.244 7.71018 87.244 7.48801V4.17824C87.244 3.95607 87.4271 3.77609 87.6531 3.77609H94.9479C95.1739 3.77609 95.357 3.59611 95.357 3.37394V1.30401C95.358 1.0829 95.1761 0.902768 94.951 0.901858H84.042C83.8169 0.901099 83.6338 1.07972 83.6329 1.30097V17.7239C83.632 17.946 83.8144 18.1266 84.0405 18.1275H94.9695C95.1955 18.1275 95.3786 17.9476 95.3786 17.7254V15.6767C95.3786 15.4545 95.1955 15.2746 94.9695 15.2746H87.6531C87.4296 15.2746 87.2474 15.0982 87.244 14.8785Z" fill="#333333"/>
</svg>
