<svg width="24" height="24" viewBox="0 0 24 24" fill="none" xmlns="http://www.w3.org/2000/svg">
<circle cx="12" cy="12" r="12" fill="url(#paint0_linear_1_13)"/>
<path d="M13.8232 6.7998C14.3779 6.7998 14.8952 6.9598 15.3752 7.27981C15.8659 7.5998 16.2606 8.0318 16.5592 8.5758C16.8579 9.1198 17.0072 9.7278 17.0072 10.3998C17.0072 11.0611 16.8579 11.6638 16.5592 12.2078C16.2606 12.7518 15.8659 13.1891 15.3752 13.5198C14.8952 13.8398 14.3779 13.9998 13.8232 13.9998H10.8792L11.0392 13.7118V17.0238C11.0392 17.3011 10.9539 17.5358 10.7832 17.7278C10.6126 17.9091 10.3886 17.9998 10.1112 17.9998C9.84455 17.9998 9.62589 17.9091 9.45522 17.7278C9.28455 17.5358 9.19922 17.3011 9.19922 17.0238V7.7758C9.19922 7.49847 9.28989 7.26914 9.47122 7.0878C9.66322 6.8958 9.89789 6.7998 10.1752 6.7998H13.8232ZM13.8232 12.1758C14.0259 12.1758 14.2232 12.0905 14.4152 11.9198C14.6072 11.7491 14.7672 11.5305 14.8952 11.2638C15.0232 10.9865 15.0872 10.6985 15.0872 10.3998C15.0872 10.0905 15.0232 9.80247 14.8952 9.5358C14.7672 9.26914 14.6072 9.05581 14.4152 8.89581C14.2232 8.72514 14.0259 8.6398 13.8232 8.6398H10.8472L11.0392 8.3518V12.4318L10.8632 12.1758H13.8232Z" fill="white"/>
<defs>
<linearGradient id="paint0_linear_1_13" x1="4.54485e-07" y1="-3" x2="21" y2="27.5" gradientUnits="userSpaceOnUse">
<stop stop-color="#535353"/>
<stop offset="1" stop-color="#D2D0C9"/>
</linearGradient>
</defs>
</svg>
