<svg width="20" height="16" viewBox="0 0 20 16" fill="none" xmlns="http://www.w3.org/2000/svg">
<path d="M18 2H10L8.59 0.59C8.21 0.21 7.7 0 7.17 0H2C0.9 0 0 0.9 0 2V14C0 15.1 0.9 16 2 16H18C19.1 16 20 15.1 20 14V4C20 2.9 19.1 2 18 2ZM14.94 12.41L13 11.28L11.06 12.41C10.68 12.63 10.22 12.29 10.32 11.86L10.83 9.66L9.14 8.2C8.81 7.91 8.98 7.36 9.42 7.32L11.65 7.13L12.53 5.07C12.7 4.67 13.28 4.67 13.45 5.07L14.33 7.13L16.56 7.32C17 7.36 17.18 7.91 16.84 8.2L15.15 9.66L15.66 11.86C15.77 12.29 15.31 12.63 14.94 12.41Z" fill="#535353"/>
</svg>
