<svg width="20" height="20" viewBox="0 0 20 20" fill="none" xmlns="http://www.w3.org/2000/svg">
<circle cx="10" cy="10" r="10" fill="url(#paint0_linear_1_10)"/>
<path d="M10.12 14.64C9.56 14.64 9.056 14.572 8.608 14.436C8.16 14.292 7.732 14.044 7.324 13.692C7.22 13.604 7.14 13.504 7.084 13.392C7.028 13.28 7 13.168 7 13.056C7 12.872 7.064 12.712 7.192 12.576C7.328 12.432 7.496 12.36 7.696 12.36C7.848 12.36 7.984 12.408 8.104 12.504C8.408 12.752 8.708 12.94 9.004 13.068C9.308 13.196 9.68 13.26 10.12 13.26C10.416 13.26 10.688 13.216 10.936 13.128C11.184 13.032 11.384 12.908 11.536 12.756C11.688 12.596 11.764 12.416 11.764 12.216C11.764 11.976 11.692 11.772 11.548 11.604C11.404 11.436 11.184 11.296 10.888 11.184C10.592 11.064 10.216 10.972 9.76 10.908C9.328 10.844 8.948 10.748 8.62 10.62C8.292 10.484 8.016 10.316 7.792 10.116C7.576 9.908 7.412 9.668 7.3 9.396C7.188 9.116 7.132 8.804 7.132 8.46C7.132 7.94 7.264 7.496 7.528 7.128C7.8 6.76 8.164 6.48 8.62 6.288C9.076 6.096 9.58 6 10.132 6C10.652 6 11.132 6.08 11.572 6.24C12.02 6.392 12.384 6.588 12.664 6.828C12.896 7.012 13.012 7.224 13.012 7.464C13.012 7.64 12.944 7.8 12.808 7.944C12.672 8.088 12.512 8.16 12.328 8.16C12.208 8.16 12.1 8.124 12.004 8.052C11.876 7.94 11.704 7.836 11.488 7.74C11.272 7.636 11.044 7.552 10.804 7.488C10.564 7.416 10.34 7.38 10.132 7.38C9.788 7.38 9.496 7.424 9.256 7.512C9.024 7.6 8.848 7.72 8.728 7.872C8.608 8.024 8.548 8.2 8.548 8.4C8.548 8.64 8.616 8.84 8.752 9C8.896 9.152 9.1 9.276 9.364 9.372C9.628 9.46 9.944 9.54 10.312 9.612C10.792 9.7 11.212 9.804 11.572 9.924C11.94 10.044 12.244 10.2 12.484 10.392C12.724 10.576 12.904 10.812 13.024 11.1C13.144 11.38 13.204 11.724 13.204 12.132C13.204 12.652 13.06 13.1 12.772 13.476C12.484 13.852 12.104 14.14 11.632 14.34C11.168 14.54 10.664 14.64 10.12 14.64Z" fill="white"/>
<defs>
<linearGradient id="paint0_linear_1_10" x1="8.3819e-07" y1="-5" x2="24.5833" y2="32.5" gradientUnits="userSpaceOnUse">
<stop stop-color="#CE3607"/>
<stop offset="1" stop-color="#ECC180"/>
</linearGradient>
</defs>
</svg>
